<svg width="28" height="28" viewBox="0 0 28 28" fill="none" xmlns="http://www.w3.org/2000/svg">
<path d="M1.23223 22.7322C0.255922 23.7085 0.255922 25.2915 1.23223 26.2678C2.20854 27.2441 3.79146 27.2441 4.76777 26.2678L3 24.5L1.23223 22.7322ZM27.5 2.5C27.5 1.11929 26.3807 -3.83659e-07 25 -3.83659e-07H2.5C1.11929 -3.83659e-07 8.61329e-07 1.11929 8.61329e-07 2.5C8.61329e-07 3.88071 1.11929 5 2.5 5H22.5V25C22.5 26.3807 23.6193 27.5 25 27.5C26.3807 27.5 27.5 26.3807 27.5 25V2.5ZM3 24.5L4.76777 26.2678L26.7678 4.26777L25 2.5L23.2322 0.732233L1.23223 22.7322L3 24.5Z" fill="#9DB59E"/>
</svg>
